<svg width="40" height="40" viewBox="0 0 40 40" fill="none" xmlns="http://www.w3.org/2000/svg">
<path d="M23.9158 13.4297H10.7144C10.4643 13.4297 10.2245 13.3303 10.0477 13.1535C9.87083 12.9767 9.77148 12.7368 9.77148 12.4867V8.71492C9.77148 8.46484 9.87083 8.22499 10.0477 8.04816C10.2245 7.87132 10.4643 7.77197 10.7144 7.77197H23.9158C24.1658 7.77197 24.4057 7.87132 24.5825 8.04816C24.7594 8.22499 24.8587 8.46484 24.8587 8.71492V12.4867C24.8587 12.7368 24.7594 12.9767 24.5825 13.1535C24.4057 13.3303 24.1658 13.4297 23.9158 13.4297ZM11.6574 11.5438H22.9728V9.6013H11.6574V11.5438Z" fill="white"/>
<path d="M23.9158 15.3911H10.7144C10.4643 15.3911 10.2245 15.4905 10.0477 15.6673C9.87083 15.8441 9.77148 16.084 9.77148 16.3341V20.0304C9.77148 20.2805 9.87083 20.5204 10.0477 20.6972C10.2245 20.874 10.4643 20.9734 10.7144 20.9734H21.4264L24.8587 17.4845V16.3341C24.8587 16.084 24.7594 15.8441 24.5825 15.6673C24.4057 15.4905 24.1658 15.3911 23.9158 15.3911ZM22.9728 19.0875H11.6574V17.2016H22.9728V19.0875Z" fill="white"/>
<path d="M14.5431 31.8265V31.7699L14.8449 30.4592H7.8859V5.8859H26.7449V15.5512L28.6308 13.769V4.94295C28.6308 4.69286 28.5315 4.45302 28.3546 4.27618C28.1778 4.09935 27.938 4 27.6879 4H6.94295C6.69286 4 6.45302 4.09935 6.27618 4.27618C6.09935 4.45302 6 4.69286 6 4.94295V31.3456C6 31.5957 6.09935 31.8355 6.27618 32.0124C6.45302 32.1892 6.69286 32.2885 6.94295 32.2885H14.4866C14.4943 32.1334 14.5132 31.979 14.5431 31.8265Z" fill="white"/>
<path d="M9.77148 27.5171C9.77148 27.7672 9.87083 28.007 10.0477 28.1838C10.2245 28.3607 10.4643 28.46 10.7144 28.46H15.2783L15.5612 27.2342L15.6838 26.7156V26.6684H11.6574V24.7448H17.6357L19.5216 22.8589H10.7144C10.4643 22.8589 10.2245 22.9582 10.0477 23.1351C9.87083 23.3119 9.77148 23.5518 9.77148 23.8018V27.5171Z" fill="white"/>
<path d="M35.6935 17.8333L32.5157 14.6556C32.3747 14.5142 32.2071 14.402 32.0227 14.3254C31.8382 14.2489 31.6405 14.2095 31.4408 14.2095C31.241 14.2095 31.0433 14.2489 30.8588 14.3254C30.6744 14.402 30.5068 14.5142 30.3658 14.6556L17.4379 27.6589L16.3724 32.1945C16.3325 32.3902 16.3316 32.5918 16.3698 32.7878C16.4079 32.9838 16.4844 33.1704 16.5947 33.3368C16.7051 33.5032 16.8472 33.6463 17.0129 33.7577C17.1787 33.8691 17.3647 33.9467 17.5605 33.9861C17.6577 33.9959 17.7556 33.9959 17.8528 33.9861C17.9684 34.0049 18.0862 34.0049 18.2017 33.9861L22.775 32.9771L35.6935 20.0304C35.8346 19.8902 35.9466 19.7235 36.023 19.5398C36.0994 19.3561 36.1388 19.1591 36.1388 18.9602C36.1388 18.7612 36.0994 18.5642 36.023 18.3806C35.9466 18.1969 35.8346 18.0301 35.6935 17.8899V17.8333ZM21.8132 31.261L18.362 32.0248L19.2013 28.6018L28.8948 18.8046L31.5539 21.4637L21.8132 31.261ZM32.6194 20.3982L29.9603 17.739L31.4596 16.2586L34.1376 18.9366L32.6194 20.3982Z" fill="white"/>
</svg>
