<svg width="40" height="40" viewBox="0 0 40 40" fill="none" xmlns="http://www.w3.org/2000/svg">
<path d="M6.41214 12.5432C6.358 12.5432 6.30439 12.5326 6.25437 12.5119C6.20435 12.4912 6.15891 12.4608 6.12063 12.4226C6.08235 12.3843 6.05199 12.3388 6.03129 12.2888C6.01058 12.2388 5.99995 12.1852 5.99998 12.1311V10.4219C5.99995 10.3678 6.01058 10.3141 6.03129 10.2641C6.05199 10.2141 6.08235 10.1687 6.12063 10.1304C6.15891 10.0921 6.20435 10.0617 6.25437 10.041C6.30439 10.0203 6.358 10.0097 6.41214 10.0097H11.4758V8.53349H10.8562C10.802 8.53352 10.7484 8.52288 10.6984 8.50218C10.6484 8.48147 10.6029 8.45112 10.5647 8.41284C10.5264 8.37456 10.496 8.32911 10.4753 8.27909C10.4546 8.22907 10.444 8.17546 10.444 8.12133V6.41216C10.444 6.35803 10.4546 6.30442 10.4753 6.2544C10.496 6.20438 10.5264 6.15893 10.5647 6.12065C10.6029 6.08237 10.6484 6.05201 10.6984 6.03131C10.7484 6.01061 10.802 5.99997 10.8562 6H29.1426C29.1968 5.99997 29.2504 6.01061 29.3004 6.03131C29.3504 6.05201 29.3959 6.08237 29.4341 6.12065C29.4724 6.15893 29.5028 6.20438 29.5235 6.2544C29.5442 6.30442 29.5548 6.35803 29.5548 6.41216V8.12133C29.5548 8.17546 29.5442 8.22907 29.5235 8.27909C29.5028 8.32911 29.4724 8.37456 29.4341 8.41284C29.3959 8.45112 29.3504 8.48147 29.3004 8.50218C29.2504 8.52288 29.1968 8.53352 29.1426 8.53349H28.523V10.0097H33.5878C33.642 10.0097 33.6956 10.0203 33.7456 10.041C33.7956 10.0617 33.8411 10.0921 33.8794 10.1304C33.9176 10.1687 33.948 10.2141 33.9687 10.2641C33.9894 10.3141 34 10.3678 34 10.4219V12.1311C34 12.1852 33.9894 12.2388 33.9687 12.2888C33.948 12.3388 33.9176 12.3843 33.8794 12.4226C33.8411 12.4608 33.7956 12.4912 33.7456 12.5119C33.6956 12.5326 33.642 12.5432 33.5878 12.5432H32.9684V31.4665H33.5878C33.642 31.4665 33.6956 31.4771 33.7456 31.4978C33.7956 31.5185 33.8411 31.5489 33.8794 31.5872C33.9176 31.6255 33.948 31.6709 33.9687 31.7209C33.9894 31.7709 34 31.8246 34 31.8787V33.5879C34 33.642 33.9894 33.6956 33.9687 33.7456C33.948 33.7956 33.9176 33.8411 33.8794 33.8794C33.8411 33.9176 33.7956 33.948 33.7456 33.9687C33.6956 33.9894 33.642 34.0001 33.5878 34H6.41214C6.358 34.0001 6.30439 33.9894 6.25437 33.9687C6.20435 33.948 6.15891 33.9176 6.12063 33.8794C6.08235 33.8411 6.05199 33.7956 6.03129 33.7456C6.01058 33.6956 5.99995 33.642 5.99998 33.5879V31.8787C5.99995 31.8246 6.01058 31.7709 6.03129 31.7209C6.05199 31.6709 6.08235 31.6255 6.12063 31.5872C6.15891 31.5489 6.20435 31.5185 6.25437 31.4978C6.30439 31.4771 6.358 31.4665 6.41214 31.4665H7.03179V12.5432H6.41214ZM6.8243 10.834V11.7189H11.477V10.834H6.8243ZM19.5878 31.4656V24.2674H17.0616V31.4665L19.5878 31.4656ZM22.9383 31.4656V24.2674H20.4121V31.4665L22.9383 31.4656ZM16.65 23.4421H23.3505C23.4598 23.4422 23.5646 23.4856 23.6419 23.5629C23.7191 23.6402 23.7626 23.745 23.7627 23.8543V31.4656H24.2584L25.168 28.9319V20.4122H14.832V28.9328L15.7416 31.4665H16.2373V23.8552C16.2374 23.7459 16.2808 23.6411 16.3581 23.5639C16.4354 23.4866 16.5402 23.4431 16.6495 23.4431L16.65 23.4421ZM27.8209 29.417H25.8703L25.1346 31.4661H28.5567L27.8209 29.417ZM14.1297 29.417H12.1791L11.4433 31.4661H14.8657L14.1297 29.417ZM28.7305 6.82432H11.2695V7.70917H28.7305V6.82432ZM12.3013 8.53349V28.5927H14.0077V20C14.0077 19.8907 14.0511 19.7859 14.1284 19.7086C14.2057 19.6313 14.3105 19.5879 14.4198 19.5879H25.5802C25.6895 19.5879 25.7943 19.6313 25.8716 19.7086C25.9489 19.7859 25.9923 19.8907 25.9923 20V28.5927H27.6987V8.53349H12.3013ZM33.1757 10.834H28.523V11.7189H33.1757V10.834ZM32.1441 12.5432H28.523V28.9328L29.4328 31.4665H32.1441V12.5432ZM6.8243 33.1748H33.1757V32.2899H6.8243V33.1748ZM7.85611 31.4656H10.5672L11.477 28.9319V12.5432H7.85611V31.4656Z" fill="white"/>
<path d="M21.4082 18.2018H18.5937C18.4844 18.2018 18.3795 18.1584 18.3022 18.0811C18.225 18.0038 18.1815 17.8989 18.1815 17.7896V14.9756C18.1815 14.8663 18.225 14.7615 18.3022 14.6842C18.3795 14.6069 18.4844 14.5635 18.5937 14.5635H21.4082C21.5175 14.5635 21.6223 14.6069 21.6996 14.6842C21.7769 14.7615 21.8203 14.8663 21.8203 14.9756V17.7896C21.8203 17.8989 21.7769 18.0038 21.6996 18.0811C21.6223 18.1584 21.5175 18.2018 21.4082 18.2018V18.2018ZM20.996 15.3878H19.0058V17.3775H20.996V15.3878Z" fill="white"/>
<path d="M26.0488 18.2018H23.2346C23.1252 18.2018 23.0204 18.1584 22.9431 18.0811C22.8658 18.0038 22.8224 17.8989 22.8224 17.7896V14.9756C22.8224 14.8663 22.8658 14.7615 22.9431 14.6842C23.0204 14.6069 23.1252 14.5635 23.2346 14.5635H26.0488C26.1581 14.5635 26.2629 14.6069 26.3402 14.6842C26.4175 14.7615 26.4609 14.8663 26.4609 14.9756V17.7896C26.4609 17.8989 26.4175 18.0038 26.3402 18.0811C26.2629 18.1584 26.1581 18.2018 26.0488 18.2018V18.2018ZM25.6366 15.3878H23.6467V17.3775H25.6366V15.3878Z" fill="white"/>
<path d="M16.7656 18.2018H13.9513C13.842 18.2018 13.7372 18.1584 13.6599 18.0811C13.5826 18.0038 13.5392 17.8989 13.5392 17.7896V14.9756C13.5392 14.8663 13.5826 14.7615 13.6599 14.6842C13.7372 14.6069 13.842 14.5635 13.9513 14.5635H16.7656C16.8749 14.5635 16.9797 14.6069 17.057 14.6842C17.1343 14.7615 17.1777 14.8663 17.1777 14.9756V17.7896C17.1777 17.8989 17.1343 18.0038 17.057 18.0811C16.9797 18.1584 16.8749 18.2018 16.7656 18.2018V18.2018ZM16.3534 15.3878H14.3635V17.3775H16.3534V15.3878Z" fill="white"/>
<path d="M21.4082 13.5585H18.5937C18.4844 13.5584 18.3796 13.515 18.3023 13.4377C18.225 13.3604 18.1816 13.2556 18.1815 13.1463V10.3321C18.1816 10.2228 18.225 10.118 18.3023 10.0407C18.3796 9.96343 18.4844 9.91998 18.5937 9.91992H21.4082C21.5174 9.91998 21.6222 9.96343 21.6995 10.0407C21.7768 10.118 21.8203 10.2228 21.8203 10.3321V13.1465C21.8202 13.2558 21.7767 13.3605 21.6994 13.4378C21.6222 13.515 21.5174 13.5584 21.4082 13.5585V13.5585ZM20.996 10.7442H19.0058V12.7341H20.996V10.7442Z" fill="white"/>
<path d="M26.0488 13.5585H23.2346C23.1253 13.5584 23.0205 13.515 22.9432 13.4377C22.8659 13.3604 22.8225 13.2556 22.8224 13.1463V10.3321C22.8225 10.2228 22.8659 10.118 22.9432 10.0407C23.0205 9.96343 23.1253 9.91998 23.2346 9.91992H26.0488C26.1581 9.91998 26.2629 9.96343 26.3401 10.0407C26.4174 10.118 26.4609 10.2228 26.4609 10.3321V13.1465C26.4608 13.2558 26.4173 13.3605 26.3401 13.4378C26.2628 13.515 26.158 13.5584 26.0488 13.5585V13.5585ZM25.6366 10.7442H23.6467V12.7341H25.6366V10.7442Z" fill="white"/>
<path d="M16.7656 13.5585H13.9513C13.8421 13.5584 13.7373 13.515 13.66 13.4377C13.5827 13.3604 13.5392 13.2556 13.5392 13.1463V10.3321C13.5392 10.2228 13.5827 10.118 13.66 10.0407C13.7373 9.96343 13.8421 9.91998 13.9513 9.91992H16.7656C16.8749 9.91998 16.9797 9.96343 17.0569 10.0407C17.1342 10.118 17.1777 10.2228 17.1777 10.3321V13.1465C17.1776 13.2558 17.1341 13.3605 17.0569 13.4378C16.9796 13.515 16.8748 13.5584 16.7656 13.5585V13.5585ZM16.3534 10.7442H14.3635V12.7341H16.3534V10.7442Z" fill="white"/>
</svg>
