<svg width="40" height="40" viewBox="0 0 40 40" fill="none" xmlns="http://www.w3.org/2000/svg">
<path d="M33.75 6.25H6.25C5.58719 6.25074 4.95173 6.51438 4.48306 6.98306C4.01438 7.45174 3.75074 8.08719 3.75 8.75V31.2502C3.75002 31.5785 3.81471 31.9035 3.94036 32.2069C4.06602 32.5102 4.25018 32.7857 4.48234 33.0179C4.7145 33.25 4.99011 33.4341 5.29344 33.5598C5.59676 33.6854 5.92185 33.75 6.25016 33.75L8.34234 33.7498C8.57871 33.7498 8.81021 33.6827 9.01 33.5564C9.20978 33.4301 9.36966 33.2497 9.47109 33.0363C10.0798 31.7537 11.0399 30.6702 12.2399 29.9115C13.4398 29.1528 14.8303 28.7501 16.25 28.7501C17.6697 28.7501 19.0602 29.1528 20.2601 29.9115C21.4601 30.6702 22.4202 31.7537 23.0289 33.0363C23.1303 33.2498 23.2903 33.4301 23.4901 33.5565C23.6899 33.6828 23.9214 33.7498 24.1578 33.7498L33.75 33.75C34.4128 33.7493 35.0483 33.4856 35.5169 33.0169C35.9856 32.5483 36.2493 31.9128 36.25 31.25V8.75C36.2493 8.08719 35.9856 7.45174 35.5169 6.98306C35.0483 6.51438 34.4128 6.25074 33.75 6.25ZM12.5 22.5C12.5 21.7583 12.7199 21.0333 13.132 20.4166C13.544 19.7999 14.1297 19.3193 14.8149 19.0355C15.5002 18.7516 16.2542 18.6774 16.9816 18.8221C17.709 18.9667 18.3772 19.3239 18.9017 19.8483C19.4261 20.3728 19.7832 21.041 19.9279 21.7684C20.0726 22.4958 19.9984 23.2498 19.7145 23.9351C19.4307 24.6203 18.9501 25.206 18.3334 25.618C17.7167 26.0301 16.9917 26.25 16.25 26.25C15.2558 26.2489 14.3026 25.8534 13.5996 25.1504C12.8966 24.4474 12.5011 23.4942 12.5 22.5ZM33.75 31.25L24.9116 31.2498C23.8674 29.4552 22.2936 28.0276 20.4059 27.1628C21.3523 26.3203 22.0202 25.2101 22.3211 23.9794C22.6221 22.7486 22.5419 21.4555 22.0911 20.2713C21.6404 19.0872 20.8404 18.0681 19.7973 17.3489C18.7541 16.6298 17.517 16.2448 16.25 16.2448C14.983 16.2448 13.7459 16.6298 12.7027 17.3489C11.6596 18.0681 10.8596 19.0872 10.4089 20.2713C9.95813 21.4555 9.87792 22.7486 10.1789 23.9794C10.4798 25.2101 11.1478 26.3203 12.0941 27.1628C10.2064 28.0276 8.63257 29.4553 7.58844 31.25H6.25V8.75H33.75V31.25ZM8.75 15V12.5C8.75 12.1685 8.8817 11.8505 9.11612 11.6161C9.35054 11.3817 9.66848 11.25 10 11.25H30C30.3315 11.25 30.6495 11.3817 30.8839 11.6161C31.1183 11.8505 31.25 12.1685 31.25 12.5V27.5C31.25 27.8315 31.1183 28.1495 30.8839 28.3839C30.6495 28.6183 30.3315 28.75 30 28.75H27.5C27.1685 28.75 26.8505 28.6183 26.6161 28.3839C26.3817 28.1495 26.25 27.8315 26.25 27.5C26.25 27.1685 26.3817 26.8505 26.6161 26.6161C26.8505 26.3817 27.1685 26.25 27.5 26.25H28.75V13.75H11.25V15C11.25 15.3315 11.1183 15.6495 10.8839 15.8839C10.6495 16.1183 10.3315 16.25 10 16.25C9.66848 16.25 9.35054 16.1183 9.11612 15.8839C8.8817 15.6495 8.75 15.3315 8.75 15Z" fill="white"/>
</svg>
