<svg id="Capa_1" enable-background="new 0 0 512 512" height="512" viewBox="0 0 512 512" width="512" xmlns="http://www.w3.org/2000/svg"><g><g><path d="m402.21 86.445h-292.42c-4.129 0-7.477 3.347-7.477 7.477 0 4.129 3.347 7.477 7.477 7.477h292.42c4.129 0 7.477-3.347 7.477-7.477s-3.348-7.477-7.477-7.477z"/><path d="m494.621 286.171h-6.215v-7.619-143.196c0-4.129-3.347-7.477-7.477-7.477s-7.477 3.347-7.477 7.477v121.951c-5.357-1.927-9.092-1.145-13.324-1.326v-215.911c0-6.503-5.291-11.793-11.793-11.793h-384.67c-6.503 0-11.793 5.29-11.793 11.793v246.101h-13.324v-254.475c0-9.232 7.511-16.743 16.743-16.743h401.419c9.232 0 16.743 7.511 16.743 16.743v68.79c0 4.129 3.347 7.477 7.477 7.477s7.477-3.347 7.477-7.477v-68.79c-.002-17.477-14.221-31.696-31.698-31.696h-401.419c-17.477 0-31.696 14.219-31.696 31.696v254.475h-6.215c-9.144 0-16.583 7.439-16.583 16.582v16.04c0 9.144 7.439 16.582 16.583 16.582h176.095l-4.687 24.451-38.671-.009c-.129.014-.247.003-.371.009-14.279.705-27.069 6.952-35.091 17.138-6.563 7.719-8.043 11.953-14.025 14.752-1.902-8.383-9.4-14.665-18.35-14.665h-8.221c-8.053 0-14.922 5.091-17.608 12.216h-37.809c-9.635 0-17.473 7.839-17.473 17.474v75.521c0 9.635 7.838 17.473 17.473 17.473h37.791c2.673 7.15 9.554 12.265 17.626 12.265h8.221c9.649 0 17.615-7.298 18.695-16.662 1.593.098 4.763-.42 8.97 1.255l20.432 8.14c14.501 5.776 32.48 6.268 46.36 6.268 34.195.06 22.401.039 24.952.044 15.31 0 25.573-15.991 18.977-29.939 10.103-5.924 13.435-18.804 7.449-28.832 9.482-7.666 10.548-21.729 2.093-30.705 6.111-8.035 5.675-19.165-1.126-26.707 9.324-9.135 9.822-22.977 6.842-28.418l4.988-31.068h253.71c9.144 0 16.583-7.439 16.583-16.582v-16.04c-.001-9.144-7.44-16.583-16.583-16.583zm-439.393 198.61h-36.587c-1.39 0-2.52-1.13-2.52-2.52v-75.521c0-1.39 1.13-2.52 2.52-2.52h36.587zm30.927 8.39c0 2.137-1.739 3.876-3.876 3.876h-8.221c-2.137 0-3.877-1.739-3.877-3.876v-97.29c0-2.137 1.739-3.876 3.877-3.876h8.221c2.137 0 3.876 1.739 3.876 3.876zm379.678-222.238c4.201 0 7.619 3.418 7.619 7.619v7.619h-74.267v-7.619c0-4.201 3.418-7.619 7.619-7.619zm-264.145 225.158c-12.778-.014-21.514.037-23.619-.031-7.566-.772-6.996-12.065.619-12.065h23c8.004 0 7.995 12.096 0 12.096zm8.398-27.05c-14.997 0-11.773 0-26.651 0-8.005 0-7.995-12.096 0-12.096h26.651c8.005 0 7.995 12.096 0 12.096zm4.851-27.049c-8.49 0-19.351 0-24.163 0-8.005 0-7.996-12.097 0-12.097h24.163c8.005 0 7.995 12.097 0 12.097zm-18.805-39.146h17.369c8.005 0 7.995 12.096 0 12.096h-17.369c-8.005 0-7.995-12.096 0-12.096zm26.39-27.913c0 7.146-5.813 12.959-12.959 12.959-14.629 0-34.493 0-49.41 0-4.129 0-7.477 3.347-7.477 7.477 0 4.129 3.347 7.477 7.477 7.477h15.874c-1.676 5.559-.987 11.474 1.919 16.506-7.944 6.156-10.482 16.982-5.909 26.027-9.493 6.164-12.454 18.639-6.597 28.386-6.221 5.072-9.255 13.403-7.012 21.727-7.409-.628-14.526-1.952-22.697-4.722l-20.254-8.069c-7.263-2.894-12.985-2.214-14.369-2.317v-73.019c15.024-3.763 19.803-15.346 25.293-21.15 5.313-6.747 14.018-10.913 23.903-11.445 31.733.008 40.173.01 72.216.018v.145zm-.683-15.099-17.827-.004c5.573-29.071 36.997-192.996 41.642-217.225.513-2.672 2.956-4.574 5.663-4.427 3.236.177 5.613 3.115 5.097 6.322zm274.411-41.041c0 .899-.731 1.629-1.629 1.629h-251.309l12.438-77.466h39.129c4.129 0 7.477-3.347 7.477-7.477s-3.347-7.477-7.477-7.477h-36.728l5.175-32.232h138.884c4.129 0 7.477-3.347 7.477-7.477s-3.347-7.477-7.477-7.477h-136.483l5.175-32.233h131.308c4.129 0 7.477-3.347 7.477-7.477s-3.347-7.477-7.477-7.477h-133.398c-3.482-6.201-9.851-10.012-16.683-10.384-7.892-.431-15.138 3.791-18.875 10.384h-123.464c-4.129 0-7.477 3.347-7.477 7.477s3.347 7.477 7.477 7.477h119.492l-6.179 32.233h-113.313c-4.129 0-7.477 3.347-7.477 7.477s3.347 7.477 7.477 7.477h110.446l-6.179 32.232h-104.267c-4.129 0-7.477 3.347-7.477 7.477s3.347 7.477 7.477 7.477h101.401l-14.85 77.466h-178.962c-.899 0-1.629-.731-1.629-1.629v-16.04c0-.898.731-1.629 1.629-1.629h156.926c4.129 0 7.477-3.347 7.477-7.477 0-4.129-3.347-7.477-7.477-7.477h-107.48v-242.939h378.35v212.749h-38.371c-12.447 0-22.572 10.126-22.572 22.572v7.619h-109.343c-4.129 0-7.477 3.347-7.477 7.477 0 4.129 3.347 7.477 7.477 7.477h219.732c.899 0 1.629.731 1.629 1.629z"/></g></g></svg>