<svg width="158" height="243" viewBox="0 0 158 243" fill="none" xmlns="http://www.w3.org/2000/svg">
<path d="M16.56 225.86C16.56 228.8 18.48 230.78 21.48 230.78C24.48 230.78 26.4 228.8 26.4 225.86V190.94C26.4 188 24.48 186.02 21.48 186.02C18.48 186.02 16.56 188 16.56 190.94V225.86ZM35.5444 225.86C35.5444 228.8 37.4644 230.78 40.4644 230.78C43.4644 230.78 45.3844 228.8 45.3844 225.86V190.94C45.3844 188 43.4644 186.02 40.4644 186.02C37.4644 186.02 35.5444 188 35.5444 190.94V225.86ZM54.3488 225.98C54.3488 228.44 55.5488 230.78 58.7288 230.78C61.9088 230.78 63.1088 228.44 63.1088 225.98V199.22H63.2288L72.4088 227.9C73.0688 229.94 74.5688 230.78 76.6088 230.78C78.6488 230.78 80.1488 229.94 80.8087 227.9L89.9888 199.22H90.1088V225.98C90.1088 228.44 91.3088 230.78 94.4888 230.78C97.6688 230.78 98.8688 228.44 98.8688 225.98V190.88C98.8688 186.92 96.1688 186.02 93.5288 186.02H90.7688C87.7088 186.02 86.2688 187.22 85.2487 190.52L76.7888 218.24H76.6688L68.0888 190.52C67.0688 187.22 65.6288 186.02 62.5688 186.02H59.6888C57.0488 186.02 54.3488 186.92 54.3488 190.88V225.98ZM122.19 203.12C119.07 202.4 115.47 201.44 115.47 198.44C115.47 195.44 117.99 193.34 122.55 193.34C131.73 193.34 130.89 199.76 135.45 199.76C137.85 199.76 139.95 198.32 139.95 195.86C139.95 190.1 130.89 185.78 123.21 185.78C114.87 185.78 105.99 189.38 105.99 198.98C105.99 203.6 107.61 208.52 116.55 210.8L127.65 213.62C131.01 214.46 131.85 216.38 131.85 218.12C131.85 221 129.03 223.82 123.93 223.82C113.97 223.82 115.35 216.02 110.01 216.02C107.61 216.02 105.87 217.7 105.87 220.1C105.87 224.78 111.45 231.02 123.93 231.02C135.81 231.02 141.69 225.2 141.69 217.4C141.69 212.36 139.41 207.02 130.41 204.98L122.19 203.12Z" fill="white"/>
<path d="M113 50.6495V121.234L98.3505 111.911V55.4439L69.3178 78.0841V59.4393L98.3505 36L113 50.6495Z" fill="white"/>
<path d="M44.5466 106.85L44.5466 36.2664L59.1962 45.5888L59.1962 102.056L88.2289 79.4159L88.2289 98.0607L59.1962 121.5L44.5466 106.85Z" fill="white"/>
<circle cx="79" cy="79" r="77" stroke="white" stroke-width="4"/>
</svg>
